<mxfile host="app.diagrams.net" agent="Mozilla/5.0 (Windows NT 10.0; Win64; x64) AppleWebKit/537.36 (KHTML, like Gecko) Chrome/138.0.0.0 Safari/537.36" scale="1" border="0" version="28.0.6" pages="2">
  <diagram name="Page-1" id="uXPbH95ByCBzDKhCJnWL">
    <mxGraphModel dx="2700" dy="914" grid="1" gridSize="10" guides="1" tooltips="1" connect="1" arrows="1" fold="1" page="1" pageScale="1" pageWidth="850" pageHeight="1100" math="0" shadow="0">
      <root>
        <mxCell id="0" />
        <mxCell id="1" parent="0" />
        <mxCell id="dIz83t2OZfv5tZXX2gFK-12" style="edgeStyle=orthogonalEdgeStyle;rounded=0;orthogonalLoop=1;jettySize=auto;html=1;entryX=0;entryY=0.5;entryDx=0;entryDy=0;" parent="1" source="dIz83t2OZfv5tZXX2gFK-3" target="uPMY2EV14jBmOfqGJZ5U-4" edge="1">
          <mxGeometry relative="1" as="geometry">
            <mxPoint x="230" y="160" as="targetPoint" />
          </mxGeometry>
        </mxCell>
        <mxCell id="dIz83t2OZfv5tZXX2gFK-3" value="Clustering by minimizers" style="rounded=1;whiteSpace=wrap;html=1;absoluteArcSize=1;arcSize=14;strokeWidth=2;fillColor=#dae8fc;strokeColor=#6c8ebf;" parent="1" vertex="1">
          <mxGeometry x="40" y="110" width="100" height="100" as="geometry" />
        </mxCell>
        <mxCell id="dIz83t2OZfv5tZXX2gFK-33" style="edgeStyle=orthogonalEdgeStyle;rounded=0;orthogonalLoop=1;jettySize=auto;html=1;entryX=0;entryY=0.5;entryDx=0;entryDy=0;" parent="1" source="dIz83t2OZfv5tZXX2gFK-23" target="dIz83t2OZfv5tZXX2gFK-30" edge="1">
          <mxGeometry relative="1" as="geometry">
            <mxPoint x="516" y="260" as="targetPoint" />
          </mxGeometry>
        </mxCell>
        <mxCell id="dIz83t2OZfv5tZXX2gFK-23" value="Run BLASTp" style="rounded=1;whiteSpace=wrap;html=1;absoluteArcSize=1;arcSize=14;strokeWidth=2;fillColor=#dae8fc;strokeColor=#6c8ebf;" parent="1" vertex="1">
          <mxGeometry x="337" y="110" width="100" height="100" as="geometry" />
        </mxCell>
        <mxCell id="uPMY2EV14jBmOfqGJZ5U-10" style="edgeStyle=orthogonalEdgeStyle;shape=connector;rounded=0;orthogonalLoop=1;jettySize=auto;html=1;entryX=0.5;entryY=0;entryDx=0;entryDy=0;strokeColor=default;align=center;verticalAlign=middle;fontFamily=Helvetica;fontSize=11;fontColor=default;labelBackgroundColor=default;endArrow=classic;" parent="1" source="dIz83t2OZfv5tZXX2gFK-30" target="dIz83t2OZfv5tZXX2gFK-47" edge="1">
          <mxGeometry relative="1" as="geometry" />
        </mxCell>
        <mxCell id="dIz83t2OZfv5tZXX2gFK-30" value="Select unmatched loci (DNA sequence)" style="rounded=1;whiteSpace=wrap;html=1;absoluteArcSize=1;arcSize=14;strokeWidth=2;fillColor=#dae8fc;strokeColor=#6c8ebf;" parent="1" vertex="1">
          <mxGeometry x="480" y="110" width="100" height="100" as="geometry" />
        </mxCell>
        <mxCell id="vfXmAQBLIbiiqpumdKNv-2" style="edgeStyle=orthogonalEdgeStyle;rounded=0;orthogonalLoop=1;jettySize=auto;html=1;entryX=0.5;entryY=0;entryDx=0;entryDy=0;" edge="1" parent="1" source="dIz83t2OZfv5tZXX2gFK-31" target="dIz83t2OZfv5tZXX2gFK-62">
          <mxGeometry relative="1" as="geometry" />
        </mxCell>
        <mxCell id="dIz83t2OZfv5tZXX2gFK-31" value="BLASTp_&lt;div&gt;results&lt;/div&gt;" style="strokeWidth=2;html=1;shape=mxgraph.flowchart.multi-document;whiteSpace=wrap;fillColor=#f8cecc;strokeColor=#b85450;" parent="1" vertex="1">
          <mxGeometry x="337" y="260" width="88" height="60" as="geometry" />
        </mxCell>
        <mxCell id="dIz83t2OZfv5tZXX2gFK-32" style="edgeStyle=orthogonalEdgeStyle;rounded=0;orthogonalLoop=1;jettySize=auto;html=1;exitX=0.5;exitY=1;exitDx=0;exitDy=0;entryX=0.563;entryY=0.122;entryDx=0;entryDy=0;entryPerimeter=0;" parent="1" source="dIz83t2OZfv5tZXX2gFK-23" target="dIz83t2OZfv5tZXX2gFK-31" edge="1">
          <mxGeometry relative="1" as="geometry" />
        </mxCell>
        <mxCell id="uPMY2EV14jBmOfqGJZ5U-12" style="edgeStyle=orthogonalEdgeStyle;shape=connector;rounded=0;orthogonalLoop=1;jettySize=auto;html=1;entryX=1;entryY=0.5;entryDx=0;entryDy=0;strokeColor=default;align=center;verticalAlign=middle;fontFamily=Helvetica;fontSize=11;fontColor=default;labelBackgroundColor=default;endArrow=classic;exitX=0;exitY=0.5;exitDx=0;exitDy=0;exitPerimeter=0;" parent="1" source="dIz83t2OZfv5tZXX2gFK-53" target="dIz83t2OZfv5tZXX2gFK-62" edge="1">
          <mxGeometry relative="1" as="geometry" />
        </mxCell>
        <mxCell id="dIz83t2OZfv5tZXX2gFK-47" value="Run BLASTn" style="rounded=1;whiteSpace=wrap;html=1;absoluteArcSize=1;arcSize=14;strokeWidth=2;fillColor=#dae8fc;strokeColor=#6c8ebf;" parent="1" vertex="1">
          <mxGeometry x="480" y="245" width="100" height="100" as="geometry" />
        </mxCell>
        <mxCell id="dIz83t2OZfv5tZXX2gFK-53" value="BLASTn_&lt;div&gt;results&lt;/div&gt;" style="strokeWidth=2;html=1;shape=mxgraph.flowchart.multi-document;whiteSpace=wrap;fillColor=#f8cecc;strokeColor=#b85450;" parent="1" vertex="1">
          <mxGeometry x="334.5" y="350" width="88" height="60" as="geometry" />
        </mxCell>
        <mxCell id="vfXmAQBLIbiiqpumdKNv-13" style="edgeStyle=orthogonalEdgeStyle;rounded=0;orthogonalLoop=1;jettySize=auto;html=1;exitX=0.5;exitY=1;exitDx=0;exitDy=0;" edge="1" parent="1" source="dIz83t2OZfv5tZXX2gFK-62" target="vfXmAQBLIbiiqpumdKNv-12">
          <mxGeometry relative="1" as="geometry" />
        </mxCell>
        <mxCell id="dIz83t2OZfv5tZXX2gFK-62" value="Process, extract and write results" style="rounded=1;whiteSpace=wrap;html=1;absoluteArcSize=1;arcSize=14;strokeWidth=2;fillColor=#dae8fc;strokeColor=#6c8ebf;" parent="1" vertex="1">
          <mxGeometry x="40" y="330" width="100" height="100" as="geometry" />
        </mxCell>
        <mxCell id="dIz83t2OZfv5tZXX2gFK-76" value="blast_by_cluster" style="strokeWidth=2;html=1;shape=mxgraph.flowchart.document2;whiteSpace=wrap;size=0.25;fillColor=#f8cecc;strokeColor=#b85450;" parent="1" vertex="1">
          <mxGeometry x="-340" y="490" width="120" height="60" as="geometry" />
        </mxCell>
        <mxCell id="dIz83t2OZfv5tZXX2gFK-77" value="blast_results_by_&lt;div&gt;class&lt;/div&gt;" style="strokeWidth=2;html=1;shape=mxgraph.flowchart.document2;whiteSpace=wrap;size=0.25;fillColor=#f8cecc;strokeColor=#b85450;" parent="1" vertex="1">
          <mxGeometry x="-340" y="580" width="120" height="60" as="geometry" />
        </mxCell>
        <mxCell id="dIz83t2OZfv5tZXX2gFK-78" value="blast_all_&lt;div&gt;matches.tsv&lt;/div&gt;" style="strokeWidth=2;html=1;shape=mxgraph.flowchart.document2;whiteSpace=wrap;size=0.25;fillColor=#f8cecc;strokeColor=#b85450;" parent="1" vertex="1">
          <mxGeometry x="-340" y="670" width="120" height="60" as="geometry" />
        </mxCell>
        <mxCell id="dIz83t2OZfv5tZXX2gFK-84" value="dropped_cds.tsv" style="strokeWidth=2;html=1;shape=mxgraph.flowchart.document2;whiteSpace=wrap;size=0.25;fillColor=#f8cecc;strokeColor=#b85450;" parent="1" vertex="1">
          <mxGeometry x="-340" y="757.5" width="120" height="60" as="geometry" />
        </mxCell>
        <mxCell id="dIz83t2OZfv5tZXX2gFK-86" value="drop_loci_reason.tsv" style="strokeWidth=2;html=1;shape=mxgraph.flowchart.document2;whiteSpace=wrap;size=0.25;fillColor=#d5e8d4;strokeColor=#82b366;" parent="1" vertex="1">
          <mxGeometry x="410" y="490" width="119" height="60" as="geometry" />
        </mxCell>
        <mxCell id="dIz83t2OZfv5tZXX2gFK-88" value="Processes" style="rounded=0;whiteSpace=wrap;html=1;fillColor=#dae8fc;strokeColor=#6c8ebf;" parent="1" vertex="1">
          <mxGeometry x="-330" y="185" width="120" height="60" as="geometry" />
        </mxCell>
        <mxCell id="dIz83t2OZfv5tZXX2gFK-89" value="Temporary files" style="rounded=0;whiteSpace=wrap;html=1;fillColor=#f8cecc;strokeColor=#b85450;" parent="1" vertex="1">
          <mxGeometry x="-330" y="265" width="120" height="60" as="geometry" />
        </mxCell>
        <mxCell id="dIz83t2OZfv5tZXX2gFK-90" value="Input files" style="rounded=0;whiteSpace=wrap;html=1;fillColor=#e1d5e7;strokeColor=#9673a6;" parent="1" vertex="1">
          <mxGeometry x="-330" y="105" width="120" height="60" as="geometry" />
        </mxCell>
        <mxCell id="dIz83t2OZfv5tZXX2gFK-91" value="Output files" style="rounded=0;whiteSpace=wrap;html=1;fillColor=#d5e8d4;strokeColor=#82b366;" parent="1" vertex="1">
          <mxGeometry x="-330" y="345" width="120" height="60" as="geometry" />
        </mxCell>
        <mxCell id="dIz83t2OZfv5tZXX2gFK-92" value="Color description:" style="text;html=1;align=center;verticalAlign=middle;resizable=0;points=[];autosize=1;strokeColor=none;fillColor=none;" parent="1" vertex="1">
          <mxGeometry x="-382" y="60" width="110" height="30" as="geometry" />
        </mxCell>
        <mxCell id="4-mWdrpveL5I74C7olqu-1" value="count_results_&lt;div&gt;by_cluster.tsv&lt;/div&gt;" style="strokeWidth=2;html=1;shape=mxgraph.flowchart.document2;whiteSpace=wrap;size=0.25;fillColor=#d5e8d4;strokeColor=#82b366;" parent="1" vertex="1">
          <mxGeometry x="407" y="580" width="125" height="60" as="geometry" />
        </mxCell>
        <mxCell id="4-mWdrpveL5I74C7olqu-2" value="related_matches.tsv" style="strokeWidth=2;html=1;shape=mxgraph.flowchart.document2;whiteSpace=wrap;size=0.25;fillColor=#d5e8d4;strokeColor=#82b366;" parent="1" vertex="1">
          <mxGeometry x="407" y="670" width="125" height="60" as="geometry" />
        </mxCell>
        <mxCell id="4-mWdrpveL5I74C7olqu-3" value="&lt;div&gt;&lt;span style=&quot;background-color: transparent; color: light-dark(rgb(0, 0, 0), rgb(255, 255, 255));&quot;&gt;recommendations.tsv&lt;/span&gt;&lt;/div&gt;" style="strokeWidth=2;html=1;shape=mxgraph.flowchart.document2;whiteSpace=wrap;size=0.25;fillColor=#d5e8d4;strokeColor=#82b366;" parent="1" vertex="1">
          <mxGeometry x="407" y="757.5" width="125" height="60" as="geometry" />
        </mxCell>
        <mxCell id="4-mWdrpveL5I74C7olqu-5" value="Annotation using consolidate" style="rounded=1;whiteSpace=wrap;html=1;absoluteArcSize=1;arcSize=14;strokeWidth=2;fillColor=#dae8fc;strokeColor=#6c8ebf;" parent="1" vertex="1">
          <mxGeometry x="419.5" y="840" width="100" height="100" as="geometry" />
        </mxCell>
        <mxCell id="4-mWdrpveL5I74C7olqu-6" value="&lt;div&gt;&lt;span style=&quot;background-color: transparent; color: light-dark(rgb(0, 0, 0), rgb(255, 255, 255));&quot;&gt;recommendations&lt;/span&gt;&lt;/div&gt;&lt;div&gt;&lt;span style=&quot;background-color: transparent; color: light-dark(rgb(0, 0, 0), rgb(255, 255, 255));&quot;&gt;_annotations.tsv&lt;/span&gt;&lt;/div&gt;" style="strokeWidth=2;html=1;shape=mxgraph.flowchart.document2;whiteSpace=wrap;size=0.25;fillColor=#d5e8d4;strokeColor=#82b366;" parent="1" vertex="1">
          <mxGeometry x="407" y="990" width="125" height="60" as="geometry" />
        </mxCell>
        <mxCell id="4-mWdrpveL5I74C7olqu-7" style="edgeStyle=none;curved=1;rounded=0;orthogonalLoop=1;jettySize=auto;html=1;exitX=0.5;exitY=1;exitDx=0;exitDy=0;entryX=0.5;entryY=0;entryDx=0;entryDy=0;entryPerimeter=0;fontSize=12;startSize=8;endSize=8;" parent="1" source="4-mWdrpveL5I74C7olqu-5" target="4-mWdrpveL5I74C7olqu-6" edge="1">
          <mxGeometry relative="1" as="geometry" />
        </mxCell>
        <mxCell id="4-mWdrpveL5I74C7olqu-8" style="edgeStyle=orthogonalEdgeStyle;rounded=0;orthogonalLoop=1;jettySize=auto;html=1;entryX=0;entryY=0.5;entryDx=0;entryDy=0;" parent="1" source="4-mWdrpveL5I74C7olqu-9" target="4-mWdrpveL5I74C7olqu-5" edge="1">
          <mxGeometry relative="1" as="geometry">
            <mxPoint x="525.5" y="850" as="targetPoint" />
          </mxGeometry>
        </mxCell>
        <mxCell id="4-mWdrpveL5I74C7olqu-9" value="TSV annotation files" style="strokeWidth=2;html=1;shape=mxgraph.flowchart.document2;whiteSpace=wrap;size=0.25;fillColor=#E1D5E7;strokeColor=#9673A6;" parent="1" vertex="1">
          <mxGeometry x="250" y="857.5" width="100" height="65" as="geometry" />
        </mxCell>
        <mxCell id="4-mWdrpveL5I74C7olqu-11" style="edgeStyle=orthogonalEdgeStyle;rounded=0;orthogonalLoop=1;jettySize=auto;html=1;entryX=0.5;entryY=0;entryDx=0;entryDy=0;exitX=0.503;exitY=0.88;exitDx=0;exitDy=0;exitPerimeter=0;" parent="1" source="4-mWdrpveL5I74C7olqu-3" target="4-mWdrpveL5I74C7olqu-5" edge="1">
          <mxGeometry relative="1" as="geometry">
            <mxPoint x="-286" y="775" as="sourcePoint" />
            <mxPoint x="-372" y="665" as="targetPoint" />
          </mxGeometry>
        </mxCell>
        <mxCell id="uPMY2EV14jBmOfqGJZ5U-7" style="edgeStyle=orthogonalEdgeStyle;shape=connector;rounded=0;orthogonalLoop=1;jettySize=auto;html=1;entryX=0.5;entryY=0;entryDx=0;entryDy=0;strokeColor=default;align=center;verticalAlign=middle;fontFamily=Helvetica;fontSize=11;fontColor=default;labelBackgroundColor=default;endArrow=classic;exitX=0.495;exitY=0.857;exitDx=0;exitDy=0;exitPerimeter=0;" parent="1" source="I87AI6RW1DzF_tEUSeAe-1" target="dIz83t2OZfv5tZXX2gFK-3" edge="1">
          <mxGeometry relative="1" as="geometry">
            <Array as="points">
              <mxPoint x="30" y="90" />
              <mxPoint x="90" y="90" />
            </Array>
          </mxGeometry>
        </mxCell>
        <mxCell id="vfXmAQBLIbiiqpumdKNv-1" style="edgeStyle=orthogonalEdgeStyle;rounded=0;orthogonalLoop=1;jettySize=auto;html=1;entryX=0.5;entryY=0;entryDx=0;entryDy=0;exitX=0.502;exitY=0.873;exitDx=0;exitDy=0;exitPerimeter=0;" edge="1" parent="1" source="I87AI6RW1DzF_tEUSeAe-1" target="uPMY2EV14jBmOfqGJZ5U-5">
          <mxGeometry relative="1" as="geometry">
            <Array as="points">
              <mxPoint x="30" y="90" />
              <mxPoint x="-40" y="90" />
            </Array>
          </mxGeometry>
        </mxCell>
        <mxCell id="I87AI6RW1DzF_tEUSeAe-1" value="AlleleCall directory" style="strokeWidth=2;html=1;shape=mxgraph.flowchart.document2;whiteSpace=wrap;size=0.25;fillColor=#e1d5e7;strokeColor=#9673a6;" parent="1" vertex="1">
          <mxGeometry x="-20" y="10" width="100" height="60" as="geometry" />
        </mxCell>
        <mxCell id="uPMY2EV14jBmOfqGJZ5U-9" style="edgeStyle=orthogonalEdgeStyle;shape=connector;rounded=0;orthogonalLoop=1;jettySize=auto;html=1;entryX=0;entryY=0.5;entryDx=0;entryDy=0;strokeColor=default;align=center;verticalAlign=middle;fontFamily=Helvetica;fontSize=11;fontColor=default;labelBackgroundColor=default;endArrow=classic;" parent="1" source="uPMY2EV14jBmOfqGJZ5U-4" target="dIz83t2OZfv5tZXX2gFK-23" edge="1">
          <mxGeometry relative="1" as="geometry" />
        </mxCell>
        <mxCell id="uPMY2EV14jBmOfqGJZ5U-4" value="Translate clusters" style="rounded=1;whiteSpace=wrap;html=1;absoluteArcSize=1;arcSize=14;strokeWidth=2;fillColor=#dae8fc;strokeColor=#6c8ebf;" parent="1" vertex="1">
          <mxGeometry x="190" y="110" width="100" height="100" as="geometry" />
        </mxCell>
        <mxCell id="uPMY2EV14jBmOfqGJZ5U-8" style="edgeStyle=orthogonalEdgeStyle;shape=connector;rounded=0;orthogonalLoop=1;jettySize=auto;html=1;entryX=0;entryY=0.5;entryDx=0;entryDy=0;strokeColor=default;align=center;verticalAlign=middle;fontFamily=Helvetica;fontSize=11;fontColor=default;labelBackgroundColor=default;endArrow=classic;exitX=0.5;exitY=1;exitDx=0;exitDy=0;" parent="1" source="uPMY2EV14jBmOfqGJZ5U-5" target="dIz83t2OZfv5tZXX2gFK-62" edge="1">
          <mxGeometry relative="1" as="geometry" />
        </mxCell>
        <mxCell id="uPMY2EV14jBmOfqGJZ5U-5" value="Calculate frequency in genomes" style="rounded=1;whiteSpace=wrap;html=1;absoluteArcSize=1;arcSize=14;strokeWidth=2;fillColor=#dae8fc;strokeColor=#6c8ebf;" parent="1" vertex="1">
          <mxGeometry x="-90" y="110" width="100" height="100" as="geometry" />
        </mxCell>
        <mxCell id="uPMY2EV14jBmOfqGJZ5U-11" style="edgeStyle=orthogonalEdgeStyle;shape=connector;rounded=0;orthogonalLoop=1;jettySize=auto;html=1;entryX=1;entryY=0.5;entryDx=0;entryDy=0;entryPerimeter=0;strokeColor=default;align=center;verticalAlign=middle;fontFamily=Helvetica;fontSize=11;fontColor=default;labelBackgroundColor=default;endArrow=classic;exitX=0.5;exitY=1;exitDx=0;exitDy=0;" parent="1" source="dIz83t2OZfv5tZXX2gFK-47" target="dIz83t2OZfv5tZXX2gFK-53" edge="1">
          <mxGeometry relative="1" as="geometry" />
        </mxCell>
        <mxCell id="vfXmAQBLIbiiqpumdKNv-3" style="edgeStyle=orthogonalEdgeStyle;rounded=0;orthogonalLoop=1;jettySize=auto;html=1;entryX=1;entryY=0.5;entryDx=0;entryDy=0;entryPerimeter=0;exitX=0.25;exitY=1;exitDx=0;exitDy=0;" edge="1" parent="1" source="dIz83t2OZfv5tZXX2gFK-62" target="dIz83t2OZfv5tZXX2gFK-76">
          <mxGeometry relative="1" as="geometry">
            <Array as="points">
              <mxPoint x="65" y="650" />
              <mxPoint x="-120" y="650" />
              <mxPoint x="-120" y="520" />
            </Array>
          </mxGeometry>
        </mxCell>
        <mxCell id="vfXmAQBLIbiiqpumdKNv-4" style="edgeStyle=orthogonalEdgeStyle;rounded=0;orthogonalLoop=1;jettySize=auto;html=1;entryX=1;entryY=0.5;entryDx=0;entryDy=0;entryPerimeter=0;exitX=0.25;exitY=1;exitDx=0;exitDy=0;" edge="1" parent="1" source="dIz83t2OZfv5tZXX2gFK-62" target="dIz83t2OZfv5tZXX2gFK-77">
          <mxGeometry relative="1" as="geometry">
            <Array as="points">
              <mxPoint x="65" y="650" />
              <mxPoint x="-120" y="650" />
              <mxPoint x="-120" y="610" />
            </Array>
          </mxGeometry>
        </mxCell>
        <mxCell id="vfXmAQBLIbiiqpumdKNv-5" style="edgeStyle=orthogonalEdgeStyle;rounded=0;orthogonalLoop=1;jettySize=auto;html=1;entryX=1;entryY=0.5;entryDx=0;entryDy=0;entryPerimeter=0;exitX=0.25;exitY=1;exitDx=0;exitDy=0;" edge="1" parent="1" source="dIz83t2OZfv5tZXX2gFK-62" target="dIz83t2OZfv5tZXX2gFK-78">
          <mxGeometry relative="1" as="geometry">
            <Array as="points">
              <mxPoint x="65" y="650" />
              <mxPoint x="-120" y="650" />
              <mxPoint x="-120" y="700" />
            </Array>
          </mxGeometry>
        </mxCell>
        <mxCell id="vfXmAQBLIbiiqpumdKNv-6" style="edgeStyle=orthogonalEdgeStyle;rounded=0;orthogonalLoop=1;jettySize=auto;html=1;entryX=1;entryY=0.5;entryDx=0;entryDy=0;entryPerimeter=0;exitX=0.25;exitY=1;exitDx=0;exitDy=0;" edge="1" parent="1" source="dIz83t2OZfv5tZXX2gFK-62" target="dIz83t2OZfv5tZXX2gFK-84">
          <mxGeometry relative="1" as="geometry">
            <Array as="points">
              <mxPoint x="65" y="650" />
              <mxPoint x="-120" y="650" />
              <mxPoint x="-120" y="788" />
            </Array>
          </mxGeometry>
        </mxCell>
        <mxCell id="vfXmAQBLIbiiqpumdKNv-7" style="edgeStyle=orthogonalEdgeStyle;rounded=0;orthogonalLoop=1;jettySize=auto;html=1;exitX=0.75;exitY=1;exitDx=0;exitDy=0;entryX=0;entryY=0.5;entryDx=0;entryDy=0;entryPerimeter=0;" edge="1" parent="1" source="dIz83t2OZfv5tZXX2gFK-62" target="dIz83t2OZfv5tZXX2gFK-86">
          <mxGeometry relative="1" as="geometry">
            <Array as="points">
              <mxPoint x="115" y="650" />
              <mxPoint x="320" y="650" />
              <mxPoint x="320" y="520" />
            </Array>
          </mxGeometry>
        </mxCell>
        <mxCell id="vfXmAQBLIbiiqpumdKNv-8" style="edgeStyle=orthogonalEdgeStyle;rounded=0;orthogonalLoop=1;jettySize=auto;html=1;exitX=0.75;exitY=1;exitDx=0;exitDy=0;entryX=0;entryY=0.5;entryDx=0;entryDy=0;entryPerimeter=0;" edge="1" parent="1" source="dIz83t2OZfv5tZXX2gFK-62" target="4-mWdrpveL5I74C7olqu-1">
          <mxGeometry relative="1" as="geometry">
            <Array as="points">
              <mxPoint x="115" y="650" />
              <mxPoint x="320" y="650" />
              <mxPoint x="320" y="610" />
            </Array>
          </mxGeometry>
        </mxCell>
        <mxCell id="vfXmAQBLIbiiqpumdKNv-9" style="edgeStyle=orthogonalEdgeStyle;rounded=0;orthogonalLoop=1;jettySize=auto;html=1;exitX=0.75;exitY=1;exitDx=0;exitDy=0;entryX=0;entryY=0.5;entryDx=0;entryDy=0;entryPerimeter=0;" edge="1" parent="1" source="dIz83t2OZfv5tZXX2gFK-62" target="4-mWdrpveL5I74C7olqu-2">
          <mxGeometry relative="1" as="geometry">
            <Array as="points">
              <mxPoint x="115" y="650" />
              <mxPoint x="320" y="650" />
              <mxPoint x="320" y="700" />
            </Array>
          </mxGeometry>
        </mxCell>
        <mxCell id="vfXmAQBLIbiiqpumdKNv-11" style="edgeStyle=orthogonalEdgeStyle;rounded=0;orthogonalLoop=1;jettySize=auto;html=1;exitX=0.75;exitY=1;exitDx=0;exitDy=0;entryX=0;entryY=0.5;entryDx=0;entryDy=0;entryPerimeter=0;" edge="1" parent="1" source="dIz83t2OZfv5tZXX2gFK-62" target="4-mWdrpveL5I74C7olqu-3">
          <mxGeometry relative="1" as="geometry">
            <Array as="points">
              <mxPoint x="115" y="650" />
              <mxPoint x="320" y="650" />
              <mxPoint x="320" y="788" />
            </Array>
          </mxGeometry>
        </mxCell>
        <mxCell id="vfXmAQBLIbiiqpumdKNv-12" value="Create Graphs" style="rounded=1;whiteSpace=wrap;html=1;absoluteArcSize=1;arcSize=14;strokeWidth=2;fillColor=#dae8fc;strokeColor=#6c8ebf;" vertex="1" parent="1">
          <mxGeometry x="40" y="680" width="100" height="100" as="geometry" />
        </mxCell>
        <mxCell id="vfXmAQBLIbiiqpumdKNv-14" value="Graphs folder" style="strokeWidth=2;html=1;shape=mxgraph.flowchart.multi-document;whiteSpace=wrap;fillColor=#D5E8D4;strokeColor=#89BB6B;" vertex="1" parent="1">
          <mxGeometry x="38" y="817.5" width="104" height="60" as="geometry" />
        </mxCell>
        <mxCell id="vfXmAQBLIbiiqpumdKNv-15" style="edgeStyle=orthogonalEdgeStyle;rounded=0;orthogonalLoop=1;jettySize=auto;html=1;exitX=0.5;exitY=1;exitDx=0;exitDy=0;entryX=0.5;entryY=0;entryDx=0;entryDy=0;entryPerimeter=0;" edge="1" parent="1" source="vfXmAQBLIbiiqpumdKNv-12" target="vfXmAQBLIbiiqpumdKNv-14">
          <mxGeometry relative="1" as="geometry" />
        </mxCell>
      </root>
    </mxGraphModel>
  </diagram>
  <diagram id="dzKd1Ix6tNvPVu0gE4aH" name="Página-2">
    <mxGraphModel dx="1025" dy="464" grid="1" gridSize="10" guides="1" tooltips="1" connect="1" arrows="1" fold="1" page="1" pageScale="1" pageWidth="827" pageHeight="1169" math="0" shadow="0">
      <root>
        <mxCell id="0" />
        <mxCell id="1" parent="0" />
      </root>
    </mxGraphModel>
  </diagram>
</mxfile>
